HIERARCHY
ROOT Hips
{
  OFFSET 2.26061 22.2878 23.7974
  CHANNELS 6 Xposition Yposition Zposition Zrotation Xrotation Yrotation
  JOINT LeftUpLeg
  {
    OFFSET 8.64259 1.95398 -2.38835
    CHANNELS 3 Zrotation Xrotation Yrotation
    JOINT LeftLeg
    {
      OFFSET 43.7702 0 0
      CHANNELS 3 Zrotation Xrotation Yrotation
      JOINT LeftFoot
      {
        OFFSET 40.6238 0 0
        CHANNELS 3 Zrotation Xrotation Yrotation
        JOINT LeftToeBase
        {
          OFFSET 12.7242 0 0
          CHANNELS 3 Zrotation Xrotation Yrotation
          End Site
          {
            OFFSET 0 0 0
          }
        }
      }
    }
  }
  JOINT RightUpLeg
  {
    OFFSET -8.2249 1.95398 -2.59336
    CHANNELS 3 Zrotation Xrotation Yrotation
    JOINT RightLeg
    {
      OFFSET 43.5653 0 0
      CHANNELS 3 Zrotation Xrotation Yrotation
      JOINT RightFoot
      {
        OFFSET 40.6238 0 0
        CHANNELS 3 Zrotation Xrotation Yrotation
        JOINT RightToeBase
        {
          OFFSET 12.7242 0 0
          CHANNELS 3 Zrotation Xrotation Yrotation
          End Site
          {
            OFFSET 0 0 0
          }
        }
      }
    }
  }
  JOINT Spine
  {
    OFFSET 0.165834 0.87714 6.61349
    CHANNELS 3 Zrotation Xrotation Yrotation
    JOINT Spine1
    {
      OFFSET 7.38963 1.71661e-005 0
      CHANNELS 3 Zrotation Xrotation Yrotation
      JOINT Spine2
      {
        OFFSET 11.9445 1.14441e-005 0
        CHANNELS 3 Zrotation Xrotation Yrotation
        JOINT Spine3
        {
          OFFSET 14.7254 4.19617e-005 0
          CHANNELS 3 Zrotation Xrotation Yrotation
          JOINT Spine4
          {
            OFFSET 10.9679 0 0
            CHANNELS 3 Zrotation Xrotation Yrotation
            JOINT RightShoulder
            {
              OFFSET 2.46616 -1.6653 3.69651
              CHANNELS 3 Zrotation Xrotation Yrotation
              JOINT RightArm
              {
                OFFSET 13.0012 0 0
                CHANNELS 3 Zrotation Xrotation Yrotation
                JOINT RightForeArm
                {
                  OFFSET 28.7848 1.52588e-005 0
                  CHANNELS 3 Zrotation Xrotation Yrotation
                  JOINT RightHand
                  {
                    OFFSET 26.5688 1.52588e-005 0
                    CHANNELS 3 Zrotation Xrotation Yrotation
                    End Site
                    {
                      OFFSET 0 0 0
                    }
                  }
                }
              }
            }
            JOINT LeftShoulder
            {
              OFFSET 2.38034 -1.29275 -3.7523
              CHANNELS 3 Zrotation Xrotation Yrotation
              JOINT LeftArm
              {
                OFFSET 16.3182 6.10351e-005 0
                CHANNELS 3 Zrotation Xrotation Yrotation
                JOINT LeftForeArm
                {
                  OFFSET 27.0901 0 0
                  CHANNELS 3 Zrotation Xrotation Yrotation
                  JOINT LeftHand
                  {
                    OFFSET 24.5451 1.52588e-005 0
                    CHANNELS 3 Zrotation Xrotation Yrotation
                    End Site
                    {
                      OFFSET 0 0 0
                    }
                  }
                }
              }
            }
            JOINT Neck
            {
              OFFSET 5.0226 -0.0266342 0
              CHANNELS 3 Zrotation Xrotation Yrotation
              JOINT Head
              {
                OFFSET 6.69363 2.86102e-005 0
                CHANNELS 3 Zrotation Xrotation Yrotation
                End Site
                {
                  OFFSET 0 0 0
                }
              }
            }
          }
        }
      }
    }
  }
}
MOTION
Frames:	18
Frame Time:	0.0416667
-69.1121 93.234 -84.6907 94.2563 -35.4017 91.4125 -174.254 0.893488 90.4038 -46.2423 23.2602 2.70523 54.1645 -2.66376 -0.633805 48.3611 17.406 11.4738 174.504 24.5654 90.8463 -28.6132 3.44419 -0.168105 60.4518 -0.218051 0.0466544 34.0518 0.280976 -3.36479 -0.947981 7.62963 -90.325 11.6096 -2.03787 -0.435498 -0.0598032 -2.05505 -0.345363 -22.6047 -1.81275 -1.028 -2.59203 -1.81275 -1.028 95.2023 -56.5477 -91.9736 21.1013 -4.3831 15.0212 -6.89307 -29.2857 -35.696 0.914979 -0.504516 7.66876 -102.539 -52.3714 61.2902 -11.6308 11.9733 2.18801 8.15791 3.22026 -60.217 19.2339 1.5953 4.45631 -20.5903 -0.544177 6.55104 -1.40524 -0.090437 0.571659 
-64.3393 93.586 -79.4563 94.7693 -35.0891 92.9726 -173.414 10.8575 93.2845 -60.1454 15.7661 1.74194 44.959 -8.24646 -3.16114 43.2221 12.9058 14.116 173.79 21.3861 92.4796 -33.2721 4.21141 0.943183 67.0097 -1.85305 -0.958908 26.3164 0.0154173 -1.47501 -0.622635 7.80991 -90.5277 11.2476 -1.48468 -0.9048 -0.422719 -1.52305 -0.83859 -22.9599 -1.14413 -1.30918 -2.94726 -1.14413 -1.30918 94.0477 -55.7438 -93.7381 21.1295 -4.24724 11.808 -6.04703 -26.7298 -35.9315 -2.45858 -0.683598 6.23791 -104.085 -52.8751 59.3383 -13.7805 12.3815 3.31839 7.05539 3.69413 -56.4957 17.5842 1.26648 3.31604 -20.8337 -1.65509 5.78047 1.01273 -1.29678 -0.543091 
-60.1441 94.7692 -74.6867 94.3277 -35.4933 91.5846 -171.136 19.8311 91.5428 -60.5345 11.8685 -0.278756 49.6605 -4.77242 0.153474 40.1699 9.7787 12.9065 173.65 17.3505 92.2291 -32.7626 4.09777 0.548069 69.5665 -2.66923 -1.3699 27.0551 0.0462531 -1.66851 -0.207534 7.99054 -90.4043 10.8903 -0.600081 -0.747714 -0.780732 -0.632409 -0.720582 -23.3146 -0.347611 -0.893477 -3.30196 -0.34764 -0.893492 92.6514 -55.234 -95.836 19.4635 -4.87312 7.48981 -5.34041 -23.8499 -39.6157 -4.6424 -0.764063 5.38068 -104.878 -53.1052 58.3365 -14.9599 13.9964 3.7646 7.86638 5.43718 -54.4011 16.3201 1.17422 3.30333 -21.5234 -3.4186 4.66709 4.46307 -3.2471 -1.88691 
-56.0976 95.4114 -70.4255 92.833 -37.2117 90.5822 -170.303 24.5161 89.8201 -46.1788 7.73985 -1.96561 56.7163 -0.465803 -1.16444 40.585 10.3188 14.6473 174.247 14.4012 93.03 -31.863 3.73897 -0.00590355 71.384 -3.64519 -1.84115 28.1734 0.171127 -2.87312 0.27443 8.1025 -90.4013 10.6696 0.361792 -0.830824 -1.00161 0.3249 -0.845947 -23.5358 0.594767 -0.683688 -3.5231 0.59478 -0.683686 91.6629 -53.8138 -97.5288 16.5085 -4.86582 1.51158 -5.96505 -22.9132 -43.2544 -6.47957 -0.811841 4.34866 -104.024 -53.2124 59.5561 -17.2915 14.4045 4.77445 8.4058 5.92469 -54.3704 16.0693 1.22098 3.69556 -21.6906 -5.11099 4.89324 7.00317 -5.16244 -3.82563 
-51.8334 95.0524 -66.5743 90.8457 -37.6469 89.5381 -171.821 24.5636 89.1798 -19.9882 3.94393 -2.54584 55.0935 -2.21132 -1.53159 41.8951 11.4625 12.9822 174.474 12.586 93.6514 -32.9558 4.05751 -0.203473 75.1244 -5.43631 -2.59086 29.4627 0.295889 -4.54212 0.565771 8.15884 -90.4144 10.5595 0.936483 -0.907849 -1.11145 0.895628 -0.948189 -23.648 1.16602 -0.584417 -3.6353 1.16602 -0.584421 90.8813 -52.8746 -98.868 13.2366 -3.55632 -3.67729 -6.75422 -21.3459 -46.2497 -9.06724 -0.801154 2.53209 -103.536 -53.1188 60.1937 -18.4095 14.634 6.04163 8.07572 5.2264 -55.2422 15.4639 1.13425 3.42151 -21.0279 -6.31925 5.04363 8.35423 -6.6073 -5.35797 
-47.1626 93.6315 -63.0676 89.4797 -38.1425 89.5819 -173.468 26.1108 89.912 -5.38549 3.97276 -1.87372 44.4228 -10.5036 -8.27211 39.4091 8.95142 11.6124 175.272 12.3354 94.9683 -38.0321 5.78087 -0.688435 78.2118 -7.1416 -3.20796 34.6762 0.363421 -4.43388 0.796725 8.28401 -90.4748 10.3119 1.37027 -1.062 -1.35884 1.3222 -1.12128 -23.8984 1.62607 -0.601024 -3.8858 1.62608 -0.601021 90.0943 -51.6811 -100.299 11.1601 -1.7088 -7.82364 -6.57903 -18.5301 -48.1399 -11.2057 -0.751435 1.26228 -103.701 -53.0528 59.9393 -17.7225 14.959 6.13018 9.1286 5.16964 -57.0273 13.9153 1.01817 3.36761 -18.6906 -6.95534 5.36154 8.49099 -7.44349 -6.42025 
-43.2285 91.6306 -59.7088 90.288 -36.474 90.5095 -171.082 29.9016 88.7568 -14.9573 6.679 -4.49527 48.3953 -8.28306 -3.82578 22.7257 -5.90054 5.54521 173.849 16.015 95.003 -52.2263 5.6288 0.229854 74.9399 -6.33067 -3.04192 43.728 0.348189 -6.0135 0.680278 8.65738 -90.4407 9.56341 1.15757 -0.962398 -2.10742 1.11411 -1.01241 -24.6455 1.39329 -0.569977 -4.63283 1.3933 -0.569976 88.2443 -52.1768 -102.945 7.60298 0.74753 -11.8963 -5.70775 -17.9101 -47.8275 -9.33994 -0.601221 0.419737 -103.65 -51.827 59.5196 -16.0314 15.8263 3.47451 7.44376 4.30204 -57.1778 16.6311 1.21257 3.40391 -17.2595 -7.06458 4.00077 9.88669 -7.7671 -6.69924 
-40.3626 89.355 -57.1448 88.5561 -37.4821 86.8484 -167.906 36.6946 85.8239 -30.8887 6.96392 -6.53243 57.2931 -1.86983 1.24728 20.1053 -7.3681 1.94613 173.724 33.3023 91.7402 -75.5704 0.771037 -0.974997 59.4494 -2.67004 -1.69332 42.0365 0.357363 -5.7058 0.772795 9.01617 -90.0586 8.84204 1.5158 -0.218311 -2.82808 1.5047 -0.284837 -25.3701 1.51129 0.247437 -5.35746 1.5113 0.247442 87.1809 -50.8856 -104.878 6.71421 3.13924 -14.849 -5.7477 -17.0677 -47.3913 -8.82204 -0.596304 0.623615 -104.109 -50.2194 58.2089 -12.0011 16.7867 -2.45358 6.82201 3.76636 -58.4063 18.0994 1.32651 3.4651 -14.4273 -7.76267 3.92514 10.5572 -8.63282 -7.09165 
-38.6781 87.9795 -55.71 85.8034 -36.1853 85.6832 -164.446 41.6282 84.5224 -38.545 9.38731 -7.4126 60.2102 1.64121 2.88833 22.5455 -5.22252 1.3566 172.19 45.1482 91.3778 -75.7041 4.93901 -0.374182 65.6112 -4.74392 -2.67789 42.0208 0.336408 -5.45008 0.877385 9.40999 -90.1945 8.05967 1.66613 -0.482141 -3.6103 1.64332 -0.555036 -26.1543 1.73398 0.0410346 -6.14162 1.734 0.0410386 86.2695 -48.2493 -107.039 6.59504 6.00787 -17.3052 -4.73262 -15.8619 -44.893 -8.92592 -0.569978 0.423842 -105.705 -49.4199 55.604 -3.94426 17.6184 -13.5396 6.45657 4.4557 -58.0161 20.9964 1.50876 3.35165 -11.2728 -9.10149 6.07616 8.8875 -10.157 -8.67427 
-37.3109 86.2982 -54.475 83.065 -34.2575 85.766 -161.14 47.0122 83.3683 -46.2145 11.451 -7.35626 63.8789 5.57658 3.23841 22.9503 -4.83685 1.07648 172.036 50.3211 90.5301 -60.7016 5.12032 0.476249 66.6707 -3.96896 -2.15989 45.589 0.0985802 -9.37365 0.935134 9.75205 -90.5158 7.37644 1.6446 -1.09575 -4.294 1.59478 -1.16709 -26.8362 1.89784 -0.550721 -6.82359 1.89785 -0.550713 85.0018 -46.5464 -109.564 4.08414 7.70012 -18.8715 -3.06097 -14.6071 -42.4062 -8.13598 -0.408502 -1.22529 -106.282 -48.5025 54.3628 1.78051 15.6506 -23.5647 6.28277 3.87077 -59.1297 17.8137 1.28951 3.36736 -9.39186 -10.0662 8.09006 8.01274 -11.394 -10.5384 
-36.5079 82.4853 -52.0559 82.2967 -31.8806 85.5476 -154.581 53.1692 79.6873 -58.1957 13.4876 -7.34253 67.1558 8.65359 3.50295 25.3655 -2.76812 0.385625 173.582 55.1479 89.2164 -62.9095 3.868 -0.367737 65.1795 -3.77238 -2.07562 38.508 0.404792 -3.93209 0.948122 10.1225 -90.7421 6.6371 1.57777 -1.52165 -5.03387 1.50925 -1.58961 -27.5732 1.96209 -0.977083 -7.56059 1.9621 -0.977082 85.0237 -45.4412 -109.913 1.87508 8.95799 -19.6405 -0.423443 -12.2183 -41.8879 -7.97583 -0.450066 -0.140697 -107.395 -47.3058 52.2086 7.14951 13.8108 -34.154 4.48723 4.78868 -55.3092 18.6766 1.08874 1.97138 -8.47134 -11.2219 8.94206 7.88171 -12.7703 -12.0273 
-36.5083 77.7593 -49.4484 83.8354 -28.1738 85.5672 -147.806 57.3093 74.013 -69.9096 15.2637 -5.62684 70.3208 12.1611 3.28448 27.0562 -1.34862 -0.154627 169.427 59.7089 91.4237 -75.1963 7.50725 -0.230833 72.575 -7.39251 -3.63916 36.4118 0.375229 -3.05452 0.852378 10.5304 -90.7901 5.81991 1.3722 -1.59086 -5.85137 1.30087 -1.64971 -28.388 1.78683 -1.10493 -8.37537 1.78685 -1.10493 84.9575 -46.9121 -109.507 0.0632827 10.1009 -19.6326 1.83722 -9.01617 -42.0716 -10.8054 -0.57622 0.429469 -108.22 -45.3406 50.0429 10.9753 11.2049 -43.5445 3.76357 7.7316 -49.5956 15.105 1.08771 3.25292 -9.09426 -12.4443 6.12981 8.90873 -13.9307 -11.8936 
-36.5145 72.6638 -47.164 85.5924 -26.4888 85.5636 -138.021 61.0053 67.0596 -81.256 18.3198 -3.8388 69.7054 13.2113 5.93256 32.1306 2.7367 -1.84385 167.119 63.4176 94.1823 -85.7366 11.4833 -0.983157 78.0537 -11.0689 -4.87252 38.5557 0.407447 -3.75051 0.70864 10.9325 -90.8331 5.01359 1.07268 -1.65315 -6.658 0.998885 -1.69875 -29.1913 1.51991 -1.25439 -9.17867 1.51989 -1.25441 83.6497 -46.114 -111.84 0.0788404 10.652 -19.3881 5.80294 -4.31524 -41.3199 -18.4424 -0.890066 0.430256 -109.735 -45.2676 47.8238 11.2054 7.9839 -49.215 2.11015 10.0836 -42.8116 13.4157 0.880568 2.65314 -9.40557 -12.5923 6.86907 8.96553 -14.2146 -12.9746 
-37.044 68.2455 -44.8957 88.1377 -27.1149 87.1269 -131.158 64.5424 64.3534 -90.5781 20.7196 -1.79657 68.509 12.6855 7.38829 37.3223 6.66698 -2.26275 162.158 65.0488 101.297 -93.5341 14.8016 -1.3884 81.0887 -13.9526 -5.6895 40.502 0.425876 -4.19896 0.768562 11.3906 -90.9123 4.09795 1.16706 -1.79289 -7.57376 1.08702 -1.84251 -30.1068 1.65192 -1.35933 -10.0941 1.6519 -1.35935 83.433 -45.7491 -112.313 1.49534 11.0484 -20.5766 8.68198 1.09646 -41.6542 -20.4885 -1.15705 1.42448 -110.673 -45.1068 46.3964 8.64503 6.11416 -52.5527 -0.746138 9.98068 -36.6046 15.7494 1.22506 3.83704 -9.30986 -12.677 6.90525 7.68489 -14.1705 -13.0089 
-37.5589 64.72 -43.2225 90.7029 -28.0436 88.2773 -127.19 67.3748 62.8355 -97.5987 22.3209 -0.131015 66.9196 12.0393 8.5878 39.5495 8.35794 -1.79073 157.081 65.6203 107.585 -99.3287 17.0011 -1.84892 83.4651 -16.2092 -6.21943 41.1613 0.433952 -4.2097 0.749595 11.8076 -90.8835 3.26371 1.14682 -1.72077 -8.40795 1.07 -1.76957 -30.9414 1.61092 -1.29662 -10.9287 1.61091 -1.29663 82.9914 -45.8324 -112.974 2.15379 10.7501 -20.9433 10.8186 4.58642 -42.1182 -19.3589 -0.74238 -0.666888 -112.342 -45.5329 44.2708 7.4137 5.35698 -52.3811 -1.36423 9.82506 -34.5817 15.8513 1.41764 5.01283 -9.57914 -12.3291 6.97907 7.42529 -13.8099 -13.2271 
-37.7301 61.6835 -42.1279 92.3237 -28.6656 88.8373 -123.278 70.0751 60.0897 -103.213 23.6789 1.13015 65.5282 11.4006 9.56204 41.7635 10.0982 -0.894888 151.176 66.5634 113.776 -104.29 17.2823 -2.32007 83.9733 -17.662 -7.99349 42.9567 0.380674 -5.48081 0.642788 12.0601 -90.7755 2.75714 0.979526 -1.50284 -8.91435 0.912429 -1.54449 -31.448 1.38588 -1.13902 -11.4353 1.38586 -1.13904 82.7052 -46.0293 -113.346 2.60084 9.44587 -20.9152 12.6134 5.96127 -44.0918 -17.5284 -0.487881 -1.811 -112.705 -45.5918 43.7947 6.27884 4.98152 -51.5147 -1.79178 9.46696 -33.2875 15.0928 1.47422 5.77153 -9.96214 -11.8824 6.58094 7.63829 -13.3323 -12.9432 
-37.6833 59.406 -41.8617 93.805 -26.7035 88.9222 -121.29 71.3964 55.9309 -106.82 23.02 1.92363 64.1568 10.6437 9.17374 43.3541 11.2892 -1.11189 143.517 67.0333 118.063 -108.087 18.4795 -2.81087 84.6462 -18.7576 -8.33867 43.9468 0.329104 -6.31493 0.256471 12.1963 -90.7191 2.48057 0.231702 -1.40067 -9.19114 0.169863 -1.40952 -31.7211 0.641921 -1.26633 -11.7085 0.641945 -1.26631 82.4838 -46.4502 -113.528 2.97434 7.88605 -20.7342 14.1748 6.36848 -46.2327 -14.3439 -0.195169 -3.26729 -113.519 -45.5693 42.646 5.82339 4.39237 -49.8335 -4.54006 5.49286 -30.3467 15.5031 1.07807 3.14206 -10.9793 -11.3805 5.94223 8.36746 -12.7893 -12.3274 
-37.5674 58.1546 -41.8142 95.0179 -25.7281 88.7978 -120.886 71.3192 54.3065 -108.595 22.7288 2.33437 63.3616 10.4127 9.75283 45.3393 12.6628 -2.19231 140.539 66.9803 119.464 -109.89 20.2657 -3.174 84.9232 -19.468 -8.6525 45.1154 0.243696 -7.26492 -0.0465391 12.3063 -90.5661 2.25849 -0.312748 -1.11048 -9.41287 -0.361314 -1.09566 -31.9442 0.0354289 -1.15314 -11.9316 0.0354284 -1.15314 83.2029 -46.0205 -112.572 5.3968 5.75307 -21.2683 16.7639 8.15806 -48.8918 -14.6697 0.00243974 -5.03739 -113.688 -45.2216 42.2111 4.80894 3.79182 -47.8695 -6.79443 1.0159 -28.2187 16.8793 0.88356 1.35893 -11.1375 -10.8851 5.13852 8.89739 -12.2681 -11.7676 
